<?xml version="1.0" standalone="no"?><!DOCTYPE svg PUBLIC "-//W3C//DTD SVG 1.1//EN" "http://www.w3.org/Graphics/SVG/1.1/DTD/svg11.dtd"><svg t="1594799767287" class="icon" viewBox="0 0 1024 1024" version="1.1" xmlns="http://www.w3.org/2000/svg" p-id="32102" width="48" height="48" xmlns:xlink="http://www.w3.org/1999/xlink"><defs><style type="text/css"></style></defs><path d="M515.2 51.2C256 51.2 44.8 264 44.8 523.2S256 993.6 515.2 993.6s470.4-211.2 470.4-470.4S774.4 51.2 515.2 51.2zM515.2 945.6c-233.6 0-422.4-190.4-422.4-422.4S281.6 99.2 515.2 99.2s422.4 190.4 422.4 422.4S748.8 945.6 515.2 945.6z" p-id="32103" fill="#428675"></path><path d="M515.2 523.2m-374.4 0a23.4 23.4 0 1 0 748.8 0 23.4 23.4 0 1 0-748.8 0Z" p-id="32104" fill="#428675"></path></svg>