<?xml version="1.0" standalone="no"?><!DOCTYPE svg PUBLIC "-//W3C//DTD SVG 1.1//EN" "http://www.w3.org/Graphics/SVG/1.1/DTD/svg11.dtd"><svg t="1594798094319" class="icon" viewBox="0 0 1024 1024" version="1.1" xmlns="http://www.w3.org/2000/svg" p-id="8660" xmlns:xlink="http://www.w3.org/1999/xlink" width="16" height="16"><defs><style type="text/css"></style></defs><path d="M961.127253 483.566933c0 163.089067-25.975467 301.2608-75.195733 399.701334-32.085333 64.170667-89.531733 140.731733-180.804267 140.731733h-283.8528c-2.218667-0.170667-26.180267-2.833067-62.293333-29.866667-36.010667-26.965333-91.306667-83.729067-150.084267-201.386666C93.594453 562.107733 58.12992 489.472 57.788587 488.789333c-0.034133-0.1024-0.034133-0.170667-0.1024-0.238933-14.267733-28.603733-4.164267-66.082133 22.1184-81.851733a49.834667 49.834667 0 0 1 38.980266-5.393067c14.165333 3.857067 26.043733 13.4144 33.3824 26.8288l0.341334 0.580267 88.814933 153.873066c18.158933 33.1776 38.570667 47.104 60.689067 41.472 22.186667-5.632 33.416533-27.818667 33.416533-65.809066V113.7664a57.002667 57.002667 0 0 1 56.866133-56.866133 57.002667 57.002667 0 0 1 56.900267 56.866133v369.800533a28.4672 28.4672 0 0 0 56.900267 0v-426.666666A57.002667 57.002667 0 0 1 562.96192 0a57.002667 57.002667 0 0 1 56.900267 56.900267v426.666666a28.4672 28.4672 0 0 0 56.900266 0V113.7664a57.002667 57.002667 0 0 1 56.866134-56.866133 57.002667 57.002667 0 0 1 56.900266 56.866133v426.666667a28.4672 28.4672 0 0 0 56.900267 0v-256a57.002667 57.002667 0 0 1 56.866133-56.866134 57.002667 57.002667 0 0 1 56.900267 56.866134v199.133866h-0.068267z" p-id="8661" fill="#eeeeee"></path></svg>