<?xml version="1.0" standalone="no"?><!DOCTYPE svg PUBLIC "-//W3C//DTD SVG 1.1//EN" "http://www.w3.org/Graphics/SVG/1.1/DTD/svg11.dtd"><svg t="1594797965097" class="icon" viewBox="0 0 1024 1024" version="1.1" xmlns="http://www.w3.org/2000/svg" p-id="6221" xmlns:xlink="http://www.w3.org/1999/xlink" width="16" height="16"><defs><style type="text/css"></style></defs><path d="M798.4 419.2c-35.2 0-64 32-64 72v-84.8c0-40-28.8-72-64-72s-64 32-64 72v-51.2c0-40-28.8-72-64-72s-64 32-64 72V104c0-40-28.8-72-64-72s-64 32-64 72v518.4l-75.2-86.4c-25.6-28.8-68.8-28.8-94.4 0-25.6 28.8-25.6 76.8 0 105.6L390.4 880c48 68.8 123.2 112 206.4 112 142.4 0 259.2-126.4 265.6-284.8V491.2c0-38.4-28.8-72-64-72z" fill="#eeeeee" p-id="6222"></path></svg>