<?xml version="1.0" encoding="utf-8"?>
<!-- Generator: Adobe Illustrator 23.0.3, SVG Export Plug-In . SVG Version: 6.00 Build 0)  -->
<svg version="1.1" id="Layer_1" xmlns="http://www.w3.org/2000/svg" xmlns:xlink="http://www.w3.org/1999/xlink" x="0px" y="0px"
	 viewBox="0 0 16 16" style="enable-background:new 0 0 16 16;" xml:space="preserve">
<style type="text/css">
	.st0{fill-rule:evenodd;clip-rule:evenodd;fill:#484848;}
</style>
<path class="st0" d="M10,8l5.7-5.7c0.5-0.5,0.4-1.2,0-1.7l-0.3-0.3c-0.5-0.5-1.2-0.5-1.6,0c0,0,0,0,0,0L8,6L2.3,0.3
	c-0.5-0.5-1.2-0.4-1.7,0L0.3,0.6c-0.5,0.4-0.5,1.2,0,1.6c0,0,0,0,0,0L6,8l-5.7,5.7c-0.5,0.5-0.5,1.2,0,1.7c0,0,0,0,0,0l0.3,0.3
	c0.5,0.5,1.2,0.5,1.7,0L8,10l5.7,5.7c0.5,0.5,1.2,0.5,1.7,0c0,0,0,0,0,0l0.3-0.3c0.5-0.5,0.5-1.2,0-1.7L10,8z"/>
</svg>
