<?xml version="1.0" encoding="UTF-8" standalone="no"?>
<svg width="128px" height="154px" viewBox="0 0 128 154" version="1.1" xmlns="http://www.w3.org/2000/svg" xmlns:xlink="http://www.w3.org/1999/xlink">
    <!-- Generator: Sketch 39.1 (31720) - http://www.bohemiancoding.com/sketch -->
    <title>Mario badge</title>
    <desc>Created with Sketch.</desc>
    <defs></defs>
    <g id="Page-1" stroke="none" stroke-width="1" fill="none" fill-rule="evenodd">
        <g id="GameStore_Download_demo_modal_3" transform="translate(-847.000000, -220.000000)">
            <g id="MODAL-alt" transform="translate(410.000000, 184.000000)">
                <g id="Mario-badge" transform="translate(437.000000, 36.000000)">
                    <path d="M122.598297,58.2225639 C122.369751,56.5307078 122.07667,54.6859235 121.714419,52.662485 C118.319032,33.6854688 109.636425,19.3899096 98.2643916,15.8489815 C86.0730156,12.0536498 67.8182189,16.5482344 51.4442022,28.5170001 C51.4071214,24.6998725 49.7506089,21.6752553 46.8586646,19.7850929 C46.7435003,19.7100581 46.6208484,19.6435987 46.4996228,19.5746382 C46.8290713,13.4542994 45.5504975,3.03553838 34.8444919,0.567965299 C23.2927593,-2.09469827 11.1634223,5.08291658 5.84946126,12.1447634 C0.535500253,19.206253 -2.46768638,29.9726753 2.6148763,40.8545082 C3.7009153,43.1791579 4.92957268,44.9882112 6.1896061,46.3942205 C5.26508243,48.3894317 4.0849153,52.1586799 5.73394036,56.2512924 C6.76756711,58.8160535 8.81128855,60.6222484 11.661517,61.7366938 C11.8536952,62.4502391 12.0497955,63.1566382 12.2487482,63.8558911 C10.4232328,69.2859096 9.37427463,75.0071347 9.17460889,80.8784293 C8.63444176,96.7675848 14.3003136,111.915325 25.128971,123.533571 C33.1437677,132.132202 43.2789432,138.027794 54.4320574,140.734406 C55.2713665,142.837524 56.663322,144.353942 58.564425,144.812369 C61.4371159,145.505548 63.6477008,143.805116 64.7405142,142.687098 C65.6172607,151.212123 71.9484473,153.596086 74.8140072,153.302021 C76.4926256,153.129441 77.4727704,152.186504 78.0115114,151.387204 C79.8152774,152.76713 81.9278122,153.245209 83.8242802,152.761413 C86.444893,152.092531 87.4168373,149.583868 87.7755225,147.933102 C88.8358902,148.539455 89.9344083,148.853886 90.9095615,148.902838 C93.9904752,149.057552 97.5327593,146.587121 97.0706757,141.724508 C96.7982746,138.858179 96.9801131,136.512091 97.1758568,135.061418 C101.711835,132.551682 105.945818,129.432021 109.766208,125.739237 C120.924314,114.95352 127.359968,100.461441 127.888013,84.9320952 C128.206052,75.5820442 126.366988,66.4913992 122.598297,58.2225639" id="Fill-1" fill="#FEFEFE"></path>
                    <path d="M42.2376468,125.710652 C40.4474296,128.778504 37.3283655,129.067924 37.2702485,128.662736 C37.212488,128.257548 38.7720201,127.389288 40.5625939,124.900276 C42.3531677,122.411622 42.4583488,120.500021 42.9307722,120.558977 C43.3928557,120.616861 44.0282206,122.642801 42.2376468,125.710652 M124.655385,84.8216869 C124.134828,100.12307 117.662806,113.75332 107.503028,123.540717 C102.651508,114.986035 97.0597972,110.338879 93.927541,108.215752 C97.8149616,106.867269 101.72841,104.879562 103.899418,102.033241 C104.103006,101.765975 104.295184,101.491919 104.479519,101.213218 C105.391207,101.397232 106.384544,101.631269 107.158962,101.631269 C111.169747,101.631269 114.703474,100.495028 117.506638,98.2807866 C120.861379,95.6309862 123.097992,91.2089351 123.556154,86.484601 C123.974382,82.1751022 122.819886,78.7235013 120.306237,76.7658075 C120.10051,76.6057333 119.88587,76.460666 119.667664,76.3245314 C121.445758,74.5965871 122.578861,72.4591672 123.00743,69.1576358 C124.270672,74.2106938 124.83758,79.4709908 124.655385,84.8216869 M94.1443209,139.950114 C94.3753627,142.728188 94.0669504,145.352262 91.4484769,145.660977 C88.1465048,146.050086 85.9034741,141.570866 85.7498028,137.634397 C85.595775,133.698285 86.4835744,130.561473 86.2115298,130.379603 C85.7498028,130.071246 82.8232736,132.386248 83.0543153,139.100791 C83.1562875,142.055376 84.0779588,144.275334 85.3469059,145.85035 C85.1689894,147.153812 84.6512847,148.44977 83.1313293,149.211195 C80.8209114,150.368875 77.2782708,148.748123 76.6621594,141.261436 C76.0460479,133.775464 78.0580368,129.693928 77.7403543,129.376281 C77.2016134,128.836745 73.1198752,133.235928 73.7359867,142.265473 C73.9274518,145.072847 74.7282541,147.346401 75.8695577,149.065413 C73.8368892,151.212123 68.3328892,148.91177 67.5748724,141.107794 C66.7277192,132.386963 69.5972011,129.04577 69.3461928,128.836388 C68.9354518,128.493729 65.2459142,130.28849 64.6964769,138.159998 C63.4043543,140.079102 61.6430173,141.429014 59.7194518,141.49333 C57.4093906,141.570866 55.7920981,137.788754 56.7929226,132.386248 C57.7941036,126.983743 60.5569783,123.489265 64.6483432,123.125167 C68.1139699,122.816095 70.3473738,124.745919 70.3473738,124.745919 C70.3473738,124.745919 75.5861036,120.329227 86.596956,121.581594 C95.2945382,122.570624 99.7891566,127.023047 101.23495,128.756708 C99.3752067,130.087325 97.4327443,131.308606 95.4118418,132.4059 L94.3753627,133.080856 C94.3753627,133.080856 93.9132791,137.171325 94.1443209,139.950114 M53.8667499,131.537998 C53.4945159,133.478183 53.4071621,135.403362 53.5897137,137.163821 C51.2393627,136.518522 48.9403543,135.722796 46.7044546,134.779501 C47.8215131,134.072388 49.7129894,132.426982 51.1712624,128.836388 C52.1977582,126.308429 52.9311733,122.795014 53.677424,118.979673 C54.9078641,119.418448 57.0303822,120.259195 59.3219031,121.552652 C56.7437192,123.548578 54.7181816,127.100582 53.8667499,131.537998 M24.9519421,118.399761 C25.3576914,117.205636 25.7826942,116.029733 26.215541,114.886703 C27.8303376,114.696258 29.2340591,114.595497 30.2726775,114.5419 C28.7020925,117.591529 27.9052123,120.041237 27.5418919,121.372211 C27.5258474,121.35506 27.5090897,121.338267 27.4930452,121.321116 C26.6084546,120.372105 25.7630841,119.397009 24.9519421,118.399761 M12.407229,80.989195 C12.5420034,77.0366474 13.081814,73.1991532 13.9721092,69.5067263 C20.2901036,88.891789 28.4910173,101.400091 28.4910173,101.400091 C25.6161872,107.243515 23.4437527,112.499167 22.4272401,115.051065 C15.5113181,105.133251 11.988644,93.2966892 12.407229,80.989195 M8.85282231,54.5147727 C8.13402565,51.8742623 8.74015379,49.9537286 9.18298387,49.0186521 C12.7719755,51.4161927 15.8995967,51.1231996 15.8995967,50.6947866 C15.8995967,49.9998214 12.8960535,49.7682855 8.85282231,45.2533342 C4.80959111,40.7387402 -0.0419297795,26.2680999 7.5820925,15.5016776 C15.2064713,4.73561263 26.7582039,1.95718108 35.0757081,3.92523676 C41.9395744,5.54956159 43.4523989,15.2869351 43.7718641,18.643492 C42.5945493,18.4469723 41.3174017,18.4448284 40.0288446,18.6174085 C37.2517081,7.70020196 29.6426607,8.80142702 29.5307053,9.25056391 C29.4198195,9.6957704 34.5405326,11.7495801 37.0912624,19.3166614 C36.6013683,19.4867402 36.1203878,19.6814734 35.6533126,19.9008609 C34.8086552,20.2974734 33.9939477,20.7737658 33.2263042,21.2975801 C29.9995633,13.3060163 23.977502,13.3228098 23.7546607,13.8809259 C23.5318195,14.4393992 28.3605215,16.0769444 30.672722,23.3631811 C29.590605,24.3918725 28.7163543,25.4523644 28.1444546,26.3838679 C27.7098251,27.0913388 27.329034,27.8599096 27.0191956,28.653492 C22.9838084,18.1178911 15.7801538,18.9911532 15.6685549,19.437789 C15.553034,19.9008609 24.4477861,24.5315801 24.2167443,33.7926614 C24.0769783,39.4066938 18.3255354,39.3495245 15.8995967,36.223789 C13.2743488,32.8418632 14.6688,27.3493156 14.2823042,27.1938864 C13.7046997,26.9627078 12.2029282,28.9307634 11.8563655,31.477659 C11.5098028,34.0241973 12.8718084,41.9085685 19.4803878,42.012188 C24.8403432,42.0961556 26.7992067,38.591673 27.4716524,36.656847 C28.1547945,37.4014781 29.1274518,37.9478029 30.4548724,38.1918446 C38.7303042,39.7146938 42.0768446,33.354601 41.7755633,32.7507495 C41.4293571,32.0564989 39.1189393,34.4872692 35.3067499,35.0664665 C31.4945605,35.6453064 29.2996635,34.6033945 29.9927889,30.5515152 C30.6859142,26.4996358 36.5774797,21.8689166 41.4293571,21.9846846 C46.280878,22.1004525 49.515463,26.3838679 46.6274407,34.8345732 C43.7394184,43.2852785 34.0360201,47.6848191 33.9204992,48.3790697 C33.8595298,48.7467402 36.2501705,48.7889027 39.318605,47.4164804 C41.9759421,51.9728795 37.9929672,57.8423876 26.7582039,59.6085639 C14.9754296,61.4608516 9.89251033,58.3351161 8.85282231,54.5147727 M107.988287,90.7594409 C109.403775,90.5518446 111.249257,89.2083644 112.619463,85.685659 C115.565602,83.4263969 117.218549,84.8266892 117.632856,83.9966614 C117.822895,83.6157704 116.100421,82.1154317 113.548622,82.5924386 C113.659864,82.1086428 113.764332,81.6012646 113.859173,81.0642298 C114.02675,80.1159328 114.167229,79.1340488 114.278828,78.1235801 C115.820889,77.7312553 117.404666,78.0253203 118.605157,78.9593249 C120.341179,80.3113806 121.119875,82.8886474 120.796845,86.2162623 C120.412488,90.1795291 118.682884,93.5607402 115.92714,95.7371068 C113.332198,97.7877008 109.915062,98.7102716 105.979508,98.4433621 C107.299441,95.4412553 107.809301,92.3948423 107.988287,90.7594409 M107.313346,87.8555941 C105.542026,87.0066289 106.851262,82.4530883 108.083129,81.0635152 C108.083129,81.0635152 105.850081,79.983014 106.54285,77.1274038 C107.235976,74.2717936 110.162505,74.5805082 112.087853,70.7991115 C112.087853,70.7991115 112.288588,76.3377518 111.548755,80.9870511 C110.701602,86.3116637 108.745591,88.5419839 107.313346,87.8555941 M89.0614017,35.5295384 C103.583519,39.544615 108.778393,52.5820906 110.601769,60.5861602 C107.694137,60.5168423 105.815853,57.4807913 105.212221,56.3327588 C106.174895,53.1762948 106.381335,48.9982855 102.384455,46.9516219 C100.081168,45.771789 97.8220925,46.0794317 95.855385,47.0216544 C89.5502262,41.1149862 81.1860145,41.1167727 78.3589616,41.3140071 C77.3438752,39.1340674 75.6641872,37.3171532 72.9658474,36.9959328 C68.6320312,36.4799792 66.2363989,39.485659 65.0294908,42.2626614 C63.2456914,42.3544897 61.8080981,41.675246 61.0090786,41.1678679 C66.5683432,37.0027217 76.4107945,32.032202 89.0614017,35.5295384 M86.2503933,22.2162205 C94.2209783,20.9427727 99.7659811,23.6054363 102.538482,28.5834595 C105.289235,33.5221788 105.451463,38.3819328 102.143786,40.2631625 C98.845736,37.2453342 94.769346,34.93855 89.6775131,33.4457147 C85.207853,32.1358214 80.983853,31.8578354 77.0497248,32.2933945 C76.4200646,27.6926892 78.8342374,23.4010558 86.2503933,22.2162205 M82.3986273,107.899534 L82.0534908,107.92133 L81.759697,108.100341 C81.6723432,108.15358 73.4279309,113.632193 64.3402875,110.159511 C55.4801204,106.77294 52.6619811,97.5150743 52.634527,97.4250326 L52.5407555,97.1145314 L52.3189839,96.8776358 C41.5826719,85.7363969 41.0963432,74.2135523 47.2011231,68.0271115 C49.6031733,67.8180859 51.9299922,64.8906567 51.8643878,62.4641741 C51.8643878,62.4641741 55.9461259,62.2333528 56.2541816,57.7566335 C56.5618808,53.2802716 55.2530006,52.2765917 55.9457694,45.7942994 C55.9457694,45.7942994 56.9241315,44.6066057 58.7557081,42.9965732 C59.6003655,43.7358446 61.373112,44.9339003 64.0119087,44.9339003 C64.0696691,44.9339003 64.1185159,44.9360442 64.1659365,44.938188 C63.960566,45.8939885 63.937034,46.5467913 64.0325883,46.5657286 C64.4173014,46.6432646 66.7277192,42.6296173 71.3481984,42.8615105 C76.9124546,43.1402112 79.1283878,50.073427 79.4346607,50.0387681 C79.7723098,50.0012507 79.9965772,47.1131254 79.2866942,44.0595662 C82.1415577,43.981673 88.4941371,44.35113 93.4333683,48.577376 C90.840566,50.680137 89.2396747,53.4285546 89.6001426,53.5889862 C89.757736,53.659376 95.4532011,50.4250187 99.8433516,52.5856637 C104.232789,54.746666 102.846538,60.3028145 103.231608,60.3803504 C103.311118,60.396072 103.61846,59.9794502 103.99319,59.2837704 C104.982605,61.234318 106.901535,63.3874595 110.549714,63.3874595 C110.743318,63.3874595 110.944054,63.370666 111.144789,63.3553017 C111.419329,65.031079 111.520232,66.2552182 111.548755,66.7865361 C111.548755,66.7865361 111.090237,69.1822901 109.084666,71.1081834 C107.236332,72.8829351 104.617859,73.655079 104.155775,77.3596544 C103.782115,80.3553296 105.927095,81.6044804 105.927095,81.6044804 C105.927095,81.6044804 104.232789,83.1473388 104.232789,86.5435569 C104.232789,88.2375569 104.616076,89.3166289 105.238962,89.9633574 C105.040009,91.912833 104.294471,96.6796869 101.537301,99.9719282 C96.068956,106.501028 82.5362541,107.891316 82.3986273,107.899534 M37.3879087,59.3948934 C38.8443989,65.2097333 40.2966106,70.0244665 41.1733571,72.7953945 C39.2590619,78.9300256 40.6549393,86.7700906 46.8035744,94.9317333 C44.2863599,97.2160071 37.2142708,103.837292 33.2273738,109.61926 C32.7257137,110.346383 32.266839,111.058142 31.8432624,111.752035 C30.148956,111.802415 28.5420034,111.870661 27.3810897,111.923543 C29.8940257,105.762471 32.3032067,101.168555 32.3032067,101.168555 C32.3032067,101.168555 27.5668502,95.0328516 22.5994518,82.8775709 C18.5419588,72.9483226 16.3816468,65.3744525 15.6892346,62.7818214 C18.9252457,63.2802669 22.7805772,63.2113064 27.1047666,62.6185314 C31.5844101,62.004318 34.9405772,60.8519978 37.3879087,59.3948934 M53.6353516,58.6048841 C52.7707276,60.1559607 50.7091789,60.0716358 50.7091789,60.0716358 C50.9402206,63.6211393 47.975541,66.0533388 46.8584825,64.9335337 C45.6262596,63.6986753 46.6274407,59.9172785 48.6298028,55.5184525 C50.7615911,50.834137 53.4816802,48.1864804 53.4816802,48.1864804 C53.0966106,53.3578075 55.0986162,55.9811672 53.6353516,58.6048841 M42.8152513,52.4309491 C43.0630507,51.1900163 43.1033404,50.0987959 43.0273961,49.1479978 C44.2179031,48.7889027 46.3382819,48.6659885 48.0568335,51.3365129 C47.2806329,52.7060767 46.641346,54.0645639 46.0487666,55.4319839 C44.9238641,53.5403922 43.8046663,53.4453481 43.5468836,53.8973435 C43.2987276,54.3329027 44.3009783,55.6731672 44.8603989,58.6023829 C43.8784713,61.8535337 43.6731009,64.9989212 44.6293571,66.705427 C43.9658251,67.4450558 43.3739588,68.240782 42.8551844,69.0861741 C41.6475633,63.9859514 40.7504936,59.385246 40.3226385,57.0920395 C41.7071064,55.6331486 42.4957861,54.0316915 42.8152513,52.4309491 M33.2976134,126.736128 C33.0416134,124.974954 33.4655465,122.619576 34.2577917,120.974527 C35.7688335,117.838787 38.5431176,115.747102 41.1733571,115.747102 C41.7424045,115.747102 42.4119978,115.859297 42.9307722,116.063678 C44.3223711,116.612146 45.24119,117.915965 45.5877527,119.536717 C45.977814,121.361492 45.5524546,123.332763 44.7851677,125.287241 C43.6952067,128.066388 41.3288112,129.915817 39.0362206,130.811947 C37.04919,129.579589 35.1313293,128.222531 33.2976134,126.736128 M43.6035744,133.364917 C42.8519755,132.991886 42.1121426,132.595631 41.377658,132.188299 C43.3432958,131.232142 45.4358641,129.286239 46.7044546,126.482439 C47.7833627,124.097404 48.2992847,121.036698 47.6118641,118.754211 C46.8955633,116.373464 45.6109282,114.71591 43.5468836,113.902675 C42.7578474,113.591459 41.9217471,113.433886 41.0621148,113.433886 C37.4485215,113.433886 34.151541,116.179446 32.3032067,120.192378 C31.6396747,121.632689 31.2574574,123.346341 31.2032624,124.94494 C30.7058808,124.499733 30.214917,124.044879 29.7310841,123.580378 C30.4719867,120.124132 32.3049894,115.547724 36.6930006,109.735028 C41.5323989,103.324555 46.563619,98.771014 48.5349616,97.0845175 C49.0123766,97.6444201 49.503697,98.2046799 50.0260368,98.7660117 C50.3583376,99.733246 51.474683,102.728207 53.8296691,105.87145 C51.7781036,113.435673 51.214761,118.825673 49.3421816,124.842392 C47.6361092,130.324221 45.7984713,132.266193 43.6035744,133.364917 M62.2609114,120.038021 C62.2544936,120.040165 62.2480758,120.042666 62.241658,120.04481 C59.022761,118.02423 55.7671399,116.598211 54.2621594,115.980782 C54.763463,113.429956 55.3061259,110.830536 55.9678752,108.35939 C57.8461594,110.268132 60.2396524,112.045385 63.2620925,113.246299 C65.5750062,114.165654 67.8946942,114.514745 70.0885215,114.514745 C74.2672401,114.514388 78.1995855,113.02584 80.6444212,111.871733 C80.2179922,114.702332 79.5131009,117.391436 79.0916635,118.868193 C73.4382708,119.553868 70.2703599,121.50513 70.2703599,121.50513 C70.2703599,121.50513 66.1886218,118.95752 62.2609114,120.038021 M92.763775,110.834109 C92.8621816,112.716411 93.0019477,116.321654 92.9049672,120.269557 C90.9945939,119.568875 88.8642318,119.033627 86.5199421,118.80352 C84.9454351,118.64952 83.4721872,118.607357 82.1041204,118.645232 C83.0250786,115.07036 83.3919644,112.048601 83.5245995,110.635088 C84.8712736,110.474657 87.5079309,110.052675 90.5079087,109.25552 C91.0848,109.623548 91.8556524,110.145933 92.763775,110.834109 M95.7954853,121.525139 C95.9113627,118.223608 95.8172346,115.326907 95.696722,113.281316 C98.7024045,116.023659 102.280343,120.048026 105.275686,125.57416 C104.661357,126.105121 104.035262,126.622861 103.398115,127.127023 C102.16304,125.831065 99.5762986,123.43674 95.7954853,121.525139 M50.8329003,32.9415523 C67.1844546,20.8255755 85.0780702,15.3730465 96.8130674,19.0283133 C107.19319,22.2598122 115.636198,35.41913 118.848321,53.3706706 C121.660399,69.0886753 119.966806,72.4838214 116.633101,75.2386706 C115.93641,75.1468423 115.222248,75.1500581 114.50773,75.2490326 C114.818638,69.0000627 113.967563,61.8335245 111.164042,54.3607727 C109.236198,49.2219607 106.69046,44.817775 103.208076,41.2850651 C104.859953,40.1191672 107.800031,37.0288052 105.387998,30.7441045 C101.537658,20.7108795 90.2836413,18.2947588 81.8605995,21.7531486 C74.8605326,24.6273388 74.7514296,29.9483783 75.2224268,32.5502994 C68.6010117,33.6733203 62.8652569,36.7733296 58.2565438,40.237079 C54.2179477,43.2724154 51.5784379,46.0744293 49.6691343,48.7874734 C48.7171566,47.5615477 47.6061594,46.6818539 46.280878,46.295246 C44.8044212,45.8639746 43.4039087,46.0880071 42.3952401,46.4006521 C42.3100257,46.1905546 42.2230284,45.9986799 42.1353181,45.8243133 C44.1262708,44.447246 46.1749839,42.4466753 47.8981705,39.5810604 C49.3068836,37.2385453 50.268488,35.0142994 50.8329003,32.9415523 M122.598115,58.2225639 C122.369569,56.5307078 122.076488,54.6859235 121.714594,52.6628423 C118.31885,33.6854688 109.636243,19.3899096 98.2642095,15.8489815 C86.0728335,12.0536498 67.8183933,16.5482344 51.4443766,28.5170001 C51.4072958,24.6998725 49.7507833,21.6752553 46.8584825,19.7850929 C46.7433181,19.7100581 46.6206663,19.6435987 46.4994407,19.5749955 C46.8292457,13.4542994 45.5503153,3.03553838 34.8446663,0.567965299 C23.2925772,-2.09469827 11.1632401,5.08291658 5.84927913,12.1447634 C0.535674677,19.206253 -2.4678685,29.9726753 2.61505072,40.8545082 C3.70073317,43.1795152 4.92939055,44.9882112 6.18942398,46.3942205 C5.2649003,48.389789 4.08473317,52.1586799 5.73375824,56.2512924 C6.76774153,58.8160535 8.81110643,60.6222484 11.6616914,61.7366938 C11.8538697,62.4502391 12.0496134,63.1566382 12.248566,63.8558911 C10.4234073,69.2859096 9.37444905,75.0071347 9.17478331,80.8784293 C8.63425964,96.7675848 14.300488,111.915682 25.1291454,123.533571 C33.1439421,132.132202 43.2791176,138.027794 54.4322318,140.734406 C55.271541,142.837524 56.6634964,144.353942 58.5645995,144.812369 C61.4369337,145.505548 63.6475187,143.805473 64.7403321,142.687098 C65.6170786,151.212123 71.9486218,153.596086 74.8138251,153.302021 C76.4924435,153.129441 77.4725883,152.186504 78.0116858,151.387204 C79.8150953,152.76713 81.9276301,153.245566 83.8244546,152.761413 C86.4450674,152.092531 87.4166552,149.583868 87.7753404,147.933102 C88.8357081,148.539455 89.9342262,148.853886 90.909736,148.902838 C93.9902931,149.057552 97.5325772,146.587121 97.0704936,141.724508 C96.7980925,138.858179 96.9799309,136.512091 97.1756747,135.061418 C101.711652,132.551682 105.945636,129.432021 109.766026,125.739237 C120.924132,114.953877 127.360143,100.461441 127.887831,84.9320952 C128.20587,75.5820442 126.367162,66.4913992 122.598115,58.2225639 M82.5152179,31.6706057 L80.8982819,27.9660303 C86.1348724,25.4966706 89.6001426,23.7212043 89.6001426,23.7212043 L92.6810563,28.5834595 L97.8406329,26.1912785 C100.305079,30.6676405 102.076399,35.452717 102.076399,35.452717 L98.4567443,36.3013249 C97.686605,32.2108563 96.6087666,29.432782 96.6087666,29.432782 L91.7950396,31.593427 L88.7914964,26.9627078 C84.9411566,28.9693528 82.5152179,31.6706057 82.5152179,31.6706057 M67.3755633,103.793343 C65.554683,103.087302 63.1636858,101.463692 61.6936468,97.7594734 C62.7918084,96.9319467 65.907307,95.090021 70.193346,96.8076034 C74.1973571,98.4126335 75.3914296,101.580889 75.7451231,103.174842 C72.3408223,104.725562 69.2402986,104.515821 67.3755633,103.793343 M66.2656357,89.8232924 C70.3085103,91.2125082 73.0810117,89.5917565 73.0810117,89.5917565 C73.0810117,89.5917565 74.5827833,93.7594038 79.203619,94.5697797 C83.8244546,95.3801556 85.2107053,92.9490279 85.2107053,92.9490279 C85.2107053,92.9490279 85.2616914,93.0222762 85.3572457,93.1333992 C84.5885326,94.5844293 83.7855911,95.8578771 82.962683,96.9787542 C81.5372123,96.9708934 77.6601315,96.706485 71.271541,94.492601 C65.0630062,92.3405314 61.6465828,89.4702716 60.3779922,88.2336266 C60.4236301,86.9626799 60.5387945,85.5859699 60.7263376,84.1063551 C60.8668167,84.0652646 60.9516747,84.0348934 60.9516747,84.0348934 C60.9516747,84.0348934 62.2224045,88.4340767 66.2656357,89.8232924 M63.863229,58.3126057 C64.9867053,53.1945175 68.4452011,48.5069862 72.8802763,49.4467078 C74.211619,49.7286242 75.1753627,50.3985778 75.8260591,51.493014 C76.21719,52.1515337 76.4863822,52.9779885 76.643619,53.938434 C76.267463,53.5646892 75.7797081,53.2713388 75.1407777,53.1355616 C72.4206886,52.5577936 68.8495243,54.6005268 67.2874964,59.6246428 C66.5487332,62.0014595 66.5754741,64.1517426 66.7355633,65.570615 C66.0898585,66.0722762 65.4983488,66.6307495 64.9785048,67.2506799 C63.4995521,65.3412228 63.0531566,62.0028887 63.863229,58.3126057 M72.9908056,60.8355616 C73.2446663,59.9773064 73.9798641,59.438485 74.6323432,59.6332182 C75.2848223,59.8268795 75.6074964,60.6801324 75.3529226,61.5380303 C75.0990619,62.3959282 74.3642206,62.9351068 73.7117415,62.740731 C73.0589059,62.5467124 72.7365883,61.6931022 72.9908056,60.8355616 M68.1699477,59.900485 C69.5676078,55.4041138 72.6413906,53.5521834 74.9493126,54.0416962 C76.3619477,54.3421927 76.7170674,55.6820999 76.7997861,56.5121277 C76.7855243,57.0480906 76.7463042,57.6090651 76.682839,58.1929073 C76.3844101,57.4911532 75.8859588,56.8383504 75.0448669,56.675775 C73.2157861,56.3234688 70.8864713,57.8330975 70.0393181,61.6148516 C69.8246775,62.5742252 69.7041649,63.312782 69.6439087,63.8841184 C68.9236858,64.1831857 68.2448223,64.5404943 67.609814,64.948898 C67.5139031,63.6425778 67.5656023,61.8442437 68.1699477,59.900485 M88.9719087,80.6440349 C87.3856357,85.6574317 82.0791621,86.1987542 79.8714296,86.1987542 C78.0926218,86.1987542 76.1990062,85.8878957 74.3959532,85.2994085 C70.4097694,83.9991625 67.3049672,81.5169398 65.8773571,78.4912507 C64.8084323,76.2241277 64.751385,73.832304 65.7083543,71.3822391 C67.1138585,67.7823551 70.8561649,65.5459607 75.4745048,65.5459607 C77.0604212,65.5459607 78.6306496,65.8085825 80.1420479,66.3252507 C86.5641538,68.5223412 90.6904602,75.2133017 88.9719087,80.6440349 M96.1712847,57.3857472 C100.557157,59.1437054 100.292956,64.997492 98.7341371,69.4756405 C97.7190507,72.3912785 95.7341594,75.8242994 91.9779477,76.2909444 C91.8905939,75.7160349 91.7618808,75.1439839 91.5982262,74.5762205 C92.6646552,73.7919282 94.1368335,72.2858725 95.0445995,69.5567495 C96.173424,66.1637472 96.1684323,62.7267959 95.0321204,60.5861602 C94.4702039,59.5281695 93.6465828,58.822485 92.6507499,58.5448563 C91.8093014,58.3111764 91.0402318,58.3690604 90.3617248,58.5702252 C90.649814,58.3179653 90.9482429,58.0878586 91.2577248,57.8895523 C92.8318752,56.8787263 94.4851789,56.7100767 96.1712847,57.3857472 M87.7867499,65.6653017 C88.0520201,64.8113342 88.7943488,64.2825175 89.443619,64.4854688 C90.0939588,64.6877054 90.4048669,65.5456034 90.1392401,66.4002855 C89.8736134,67.254253 89.1319978,67.783427 88.4820145,67.5801184 C87.8316747,67.3775245 87.5207666,66.5196266 87.7867499,65.6653017 M88.4174797,60.9256034 C89.0261036,60.2642252 90.5385716,58.9168145 92.403307,59.4377704 C93.1598975,59.6482252 93.7699477,60.1813296 94.2159867,61.0210047 C95.2374908,62.9451115 95.2189504,66.1033621 94.167853,69.2633992 C93.4094797,71.5444572 92.2125549,72.8872228 91.2926663,73.6336405 C91.0452234,72.9558261 90.7464379,72.288731 90.3973794,71.6402159 C90.9821148,71.1592785 91.7536802,70.1956173 92.372644,68.2522159 C93.5488892,64.5594317 92.6036858,62.1554595 90.6786942,61.6148516 C89.4172346,61.2607588 88.2074741,62.091144 87.5011566,62.730369 C87.7660702,62.0929305 88.0734128,61.4887217 88.4174797,60.9256034 M102.422962,87.6237008 C104.201413,83.8498075 102.538482,79.1729955 102.076399,79.1729955 C101.626794,79.1729955 98.4403432,83.0083458 91.6684658,81.2932646 C91.9640424,80.2949444 92.112722,79.2666103 92.120566,78.2286289 C95.9031621,77.799144 98.8803209,74.9610419 100.566783,70.1159375 C102.40763,64.8277704 102.549535,57.8473899 96.8918641,55.5799096 C94.6242318,54.6712739 92.313814,54.9031672 90.211619,56.2509351 C87.4683543,58.0103226 85.3839867,61.574833 84.6979922,65.4848609 C83.5709504,64.7527356 82.345502,64.1431672 81.0376914,63.6958168 C79.9694797,63.3306474 78.8752401,63.0748145 77.7674518,62.9243876 C78.6991064,59.2701927 79.5113181,53.8941277 77.493268,50.4982669 C76.5633961,48.9325407 75.1461259,47.9388655 73.2821036,47.5433249 C67.6130229,46.3449119 63.2973906,51.8406753 61.9678307,57.8945546 C60.9588056,62.4902576 61.6800981,66.5771532 63.8343488,68.9014456 C63.5672958,69.3698771 63.3266273,69.8576034 63.1262485,70.3699839 C63.0103711,70.6669073 62.9098251,70.964188 62.8174797,71.2621834 C56.2777137,68.2615059 56.8941816,62.8400627 56.5618808,62.6185314 C56.2156747,62.3866382 50.8311176,65.1675709 50.555151,70.1430929 C50.3241092,74.3107402 53.5583376,75.3526521 53.5583376,75.3526521 C53.5583376,75.3526521 52.0569226,79.7518354 54.7139031,82.6460349 C55.8459365,83.8794641 57.2050897,84.2878679 58.3656468,84.3636173 C56.5871956,99.6464201 62.664878,104.448647 66.5419588,105.952202 C67.5962652,106.361678 68.9785939,106.644309 70.5670062,106.644309 C75.3853683,106.643951 82.093424,104.037385 87.2551399,94.4779514 C88.3016023,94.9324479 89.7830507,95.2354456 91.7950396,94.9170836 C96.1848335,94.2224757 96.0693126,90.1705964 96.0693126,90.1705964 C96.0693126,90.1705964 100.459106,91.7913481 102.422962,87.6237008" id="Fill-4" fill="#B1B1B1"></path>
                </g>
            </g>
        </g>
    </g>
</svg>