<?xml version="1.0" encoding="utf-8"?>
<!-- Generator: Adobe Illustrator 23.0.4, SVG Export Plug-In . SVG Version: 6.00 Build 0)  -->
<svg version="1.1" id="Layer_1" xmlns="http://www.w3.org/2000/svg" xmlns:xlink="http://www.w3.org/1999/xlink" x="0px" y="0px"
	 viewBox="0 0 42 34" style="enable-background:new 0 0 42 34;" xml:space="preserve">
<style type="text/css">
	.st0{fill:#C8C8C8;}
</style>
<path id="table" class="st0" d="M38.3,19.7l-3.2-8.5l-1.6,8.5H38.3z M39.1,26.8c0-0.1,0-0.1,0-0.2v-2.4c0-0.1,0-0.1,0-0.1v-1.2h-4.3
	L39.1,26.8z M30.4,6.9l-2.1,9.9h-0.2l3,2.8L34.4,4H14l3.2,2.9H30.4z M25.3,27.5l-1.9-1.7v0.8c0,1.8,1.5,3.3,3.3,3.3h1.2l-1.5-1.4
	C25.9,28.3,25.5,28,25.3,27.5z M0.1,26.6c0,1.8,1.5,3.3,3.3,3.3h9.1c1.8,0,3.3-1.5,3.3-3.3v-2.4c0-0.1,0-0.1,0-0.1v-1.2H0.1V26.6z
	 M11.1,29.6c-0.6,0-1.2-0.5-1.2-1.2s0.5-1.2,1.2-1.2s1.2,0.5,1.2,1.2S11.8,29.6,11.1,29.6z M14.2,26.5c0,0.7-0.5,1.2-1.2,1.2
	s-1.2-0.5-1.2-1.2s0.5-1.2,1.2-1.2S14.3,25.8,14.2,26.5z M11.1,23.3c0.7,0,1.2,0.5,1.2,1.2s-0.5,1.2-1.2,1.2c-0.6,0-1.2-0.5-1.2-1.2
	C9.9,23.9,10.4,23.3,11.1,23.3z M9.1,25.3c0.7,0,1.2,0.5,1.2,1.2s-0.5,1.2-1.2,1.2c-0.6,0-1.2-0.5-1.2-1.2S8.5,25.3,9.1,25.3z
	 M3.9,24.3c1.3,0,2.3,1,2.3,2.2s-1.1,2.2-2.3,2.2s-2.2-1-2.2-2.2C1.7,25.2,2.7,24.2,3.9,24.3z M8.6,16.8l0.8-3.7l-2.9-2.6l-1.9,9.2
	h12.1l-3.2-2.9L8.6,16.8z M4.6,0H0l37.4,34H42L4.6,0z"/>
</svg>
