<?xml version="1.0" encoding="utf-8"?>
<!-- Generator: Adobe Illustrator 23.0.4, SVG Export Plug-In . SVG Version: 6.00 Build 0)  -->
<svg version="1.1" id="Layer_1" xmlns="http://www.w3.org/2000/svg" xmlns:xlink="http://www.w3.org/1999/xlink" x="0px" y="0px"
	 viewBox="0 0 56 34" style="enable-background:new 0 0 56 34;" xml:space="preserve">
<style type="text/css">
	.st0{fill:#C8C8C8;}
</style>
<path id="tv" class="st0" d="M17.7,25.5H30l-3.7-3.4H3.7V7.3H10L6.4,4H0v21.5h14.8v1.3H8.4V30h15.7v-3.2h-6.4L17.7,25.5z M28.7,7.3
	V11l3.7,3.4V4H21l3.6,3.3H28.7z M11.8,19v-6.4h2.4v-1.5L14,10.9H7.5v1.7h2.4V19H11.8z M38.6,18.2V20l10.9,9.9H56V18.2H38.6z M7,0
	l37.4,34H49L11.6,0H7z M28.6,28.9v-2.1h-1.1V30H35l-1.2-1.1H28.6z M22.3,18.5l-1.5-1.4l0,0l0,0l-2.6-2.4l1.5,4.3h2.4L22.3,18.5z"/>
</svg>
