<?xml version="1.0" standalone="no"?><!DOCTYPE svg PUBLIC "-//W3C//DTD SVG 1.1//EN" "http://www.w3.org/Graphics/SVG/1.1/DTD/svg11.dtd"><svg t="1594867724215" class="icon" viewBox="0 0 1024 1024" version="1.1" xmlns="http://www.w3.org/2000/svg" p-id="2943" width="16" height="16" xmlns:xlink="http://www.w3.org/1999/xlink"><defs><style type="text/css"></style></defs><path d="M784 160c-8-2-14-2-22-2l0 0c8 0 16 0 22 2zM810 168c-2 0-2-2-4-2 2 0 4 2 4 2zM856 206c-2-2-4-6-6-8 2 4 4 6 6 8zM896 812c-4 0-6 0-10 0l-18 0 0-562c0-8 0-14-2-22 2 6 2 14 2 22l0 562 18 0c4 0 6 0 10 0zM914 806c-2 2-6 2-8 4 2-2 6-2 8-4zM960 58c-20-16-46-24-72-24l-626 0c-28 0-54 8-72 24-20 18-32 42-32 66l0 32-20 0c-28 0-54 8-72 24-22 20-34 44-34 70l0 650c0 26 12 50 32 66s46 24 72 24l624 0c28 0 54-8 72-24 20-18 34-42 34-66l0-32 18 0c28 0 54-8 72-24 20-18 32-42 32-66l0-652c4-26-8-50-28-68zM814 898c0 20-24 36-52 36l-624 0c-28 0-52-16-52-36l0-648c0-20 24-36 52-36l624 0c28 0 52 16 52 36l0 648zM938 774c0 8-4 16-10 22 0 0 0 0-2 2-2 2-4 4-6 4 0 0-2 0-2 2s-2 0-2 2c0 0-2 0-2 2 0 0 0 0-2 0-2 2-6 2-8 4 0 0-2 0-2 0 0 0 0 0-2 0-2 0-4 0-6 2-4 0-6 0-10 0l-18 0 0-564c0-8 0-14-2-22 0-2 0-2-2-4 0-2 0-2-2-4 0-2 0-2-2-4 0-2-2-2-2-4-2-2-2-4-4-6-2-2-4-6-6-8-2-4-6-6-8-10-2-2-4-4-8-6-2-2-2-2-4-4 0 0 0 0-2-2l0 0c-2 0-2-2-4-2-4-2-10-6-14-8-2 0-2-2-4-2-2 0-4-2-6-2 0 0-2 0-2 0-4 0-6-2-10-2 0 0-2 0-2 0-2 0-2 0-4 0-8-2-14-2-22-2l-546 0 0-32c0-4 0-8 2-12s4-6 8-10c10-10 24-16 42-16l624 0c28 0 52 16 52 36l0 650zM172 270l402 0 0 54-402 0 0-54zM662 298c0-16 12-28 28-30 16 0 28 12 30 28 0 0 0 2 0 2 0 16-12 28-28 30-16 0-28-12-30-28 0 0 0-2 0-2zM86 372l728 0 0 54-728 0 0-54z" p-id="2944" fill="#ffffff"></path></svg>