<?xml version="1.0" standalone="no"?><!DOCTYPE svg PUBLIC "-//W3C//DTD SVG 1.1//EN" "http://www.w3.org/Graphics/SVG/1.1/DTD/svg11.dtd"><svg t="1594915860793" class="icon" viewBox="0 0 1024 1024" version="1.1" xmlns="http://www.w3.org/2000/svg" p-id="3431" xmlns:xlink="http://www.w3.org/1999/xlink" width="128" height="128"><defs><style type="text/css"></style></defs><path d="M896 460.8l-35.328 0-43.776-88.1664c-4.3008-8.704-13.2096-14.2336-22.9376-14.2336l-205.1584 0c-14.1312 0-25.6 11.4688-25.6 25.6l0 76.8-62.0032 0-197.4272-341.9136c-7.0656-12.2368-22.7328-16.4352-34.9696-9.3696l-177.3568 102.4c-12.2368 7.0656-16.4352 22.7328-9.3696 34.9696l204.8 354.7136c4.7616 8.192 13.3632 12.8 22.1696 12.8 4.352 0 8.7552-1.1264 12.8-3.4304l138.9568-80.2304 0 416.4608c0 14.1312 11.4688 25.6 25.6 25.6l409.6 0c14.1312 0 25.6-11.4688 25.6-25.6l0-460.8c0-14.1312-11.4688-25.6-25.6-25.6zM870.4 768l-51.2 0 0-153.6 51.2 0 0 153.6zM614.4 409.6l163.6864 0 25.4464 51.2-189.1328 0 0-51.2zM318.4128 553.8304l-179.2-310.3744 133.0176-76.8 179.2 310.3744-133.0176 76.8zM512 921.6l0-409.6 332.6464 0c0.0512 0 0.1024 0 0.2048 0s0.0512 0 0.1024 0l25.4464 0 0 51.2-76.8 0c-14.1312 0-25.6 11.4688-25.6 25.6l0 204.8c0 14.1312 11.4688 25.6 25.6 25.6l76.8 0 0 102.4-358.4 0z" p-id="3432" fill="#d81e06"></path><path d="M793.6 307.2c-38.4 0-57.088-18.1248-65.9968-33.3824-16.9472-28.928-14.08-72.6016 8.6528-133.4272 15.3088-40.9088 34.2016-74.7008 35.0208-76.1344 4.5568-8.0384 13.056-13.056 22.3232-13.056s17.7664 4.9664 22.3232 13.056c0.8192 1.4336 19.712 35.2256 35.0208 76.1344 22.7328 60.8768 25.6 104.4992 8.6528 133.4272-8.9088 15.2064-27.5968 33.3824-65.9968 33.3824zM793.6 135.168c-3.2256 7.4752-6.5024 15.4624-9.5744 23.7056-23.1936 62.3616-15.2064 83.968-12.1856 89.1392 1.28 2.2016 4.7104 7.9872 21.76 7.9872s20.5312-5.8368 21.8112-7.9872c3.0208-5.1712 11.0592-26.88-12.4416-89.6512-3.0208-8.0896-6.1952-15.872-9.3696-23.1936z" p-id="3433" fill="#d81e06"></path></svg>