<?xml version="1.0" standalone="no"?><!DOCTYPE svg PUBLIC "-//W3C//DTD SVG 1.1//EN" "http://www.w3.org/Graphics/SVG/1.1/DTD/svg11.dtd"><svg t="1594449344421" class="icon" viewBox="0 0 1088 1024" version="1.1" xmlns="http://www.w3.org/2000/svg" p-id="12495" data-spm-anchor-id="a313x.7781069.0.i7" width="17" height="16" xmlns:xlink="http://www.w3.org/1999/xlink"><defs><style type="text/css"></style></defs><path d="M200.512 154.688A140.8 140.8 0 0 1 435.84 50.24c24.96-22.336 57.856-35.904 93.952-35.904 44.864 0 84.864 20.992 110.656 53.824a140.416 140.416 0 0 1 201.024 58.88c21.184-18.112 40-28.544 62.592-28.544 77.76 0 140.8 76.992 140.8 154.752v306.048c0 4.672-0.192 9.28-0.64 13.888A460.8 460.8 0 0 1 271.616 896.64l-93.312-87.68-4.864-5.12C78.72 696.96 43.84 611.84 43.84 498.368c0-104.832 41.408-196.672 121.408-270.912l35.264-32.768z m140.8-64a64 64 0 0 0-64 64v109.312a30.272 30.272 0 0 1 0.448 5.376v195.84l-0.448 5.44a30.08 30.08 0 0 1-59.712-5.44l-0.128-181.568C152.96 343.68 120.64 415.168 120.64 498.304c0 86.656 21.888 154.88 110.272 254.72l93.312 87.68a384 384 0 0 0 643.2-272.96 64.64 64.64 0 0 0 0.64-8.448V253.248a64 64 0 0 0-127.616-7.488l-0.896 31.616a30.72 30.72 0 0 1-61.056-5.504l0.128-85.12a64 64 0 0 0-127.552-6.4l-0.32 4.224v48.448l-0.448 5.12a28.544 28.544 0 0 1-56.576-5.12V154.752a64 64 0 0 0-128 0.384L465.6 192v87.552l-0.512 5.376a30.08 30.08 0 0 1-29.568 24.704L430.08 309.12a30.08 30.08 0 0 1-24.64-29.568v-62.336l-0.128-62.528a64 64 0 0 0-64-64z" p-id="12496"></path></svg>