<?xml version="1.0" standalone="no"?><!DOCTYPE svg PUBLIC "-//W3C//DTD SVG 1.1//EN" "http://www.w3.org/Graphics/SVG/1.1/DTD/svg11.dtd"><svg t="1594449266934" class="icon" viewBox="0 0 1024 1024" version="1.1" xmlns="http://www.w3.org/2000/svg" p-id="10492" width="16" height="16" xmlns:xlink="http://www.w3.org/1999/xlink"><defs><style type="text/css"></style></defs><path d="M479.104 92.288C479.104 41.408 524.032 0 578.048 0c54.016 0 98.944 41.408 98.944 93.952l0.192 61.056a100.672 100.672 0 0 1 109.888-61.44c53.44 8.96 90.112 59.52 80 111.424l-16.128 108.16a102.4 102.4 0 0 1 106.432-27.904c51.84 17.024 79.68 72.96 60.608 122.88l-133.632 403.008-2.304 6.784-0.64 1.536 0.896-2.432C838.336 941.824 715.712 1024 577.92 1024a442.112 442.112 0 0 1-249.088-77.952c-25.664-14.08-73.92-54.016-138.88-113.28A5655.424 5655.424 0 0 1 33.024 683.52C-14.144 639.552-9.6 569.088 39.04 524.224l23.104 25.024-23.104-25.088c47.04-43.264 116.672-45.76 163.2-2.88l96.32 89.024c11.392 10.432 20.16 10.816 24.576 6.016-1.024 1.088-1.152-22.016-4.864-49.408L270.08 200.32c-7.04-52.224 32.512-100.672 86.4-106.752 53.504-5.888 103.04 31.68 109.696 83.52l7.04 38.016 5.952-122.88-0.064 0.064zM80.32 634.24c9.088 8.896 23.68 23.296 42.752 41.792 37.12 35.968 74.752 71.424 112.832 106.24 60.672 55.36 106.88 93.568 129.024 105.856a377.856 377.856 0 0 0 213.376 67.584c109.184 0 205.568-64.64 238.848-159.04l-0.64 2.112 1.216-3.52 1.92-5.824L953.6 385.024a26.88 26.88 0 0 0-17.6-35.008c-16-5.248-34.56 3.456-40.128 17.984L819.2 557.504a43.968 43.968 0 0 1-9.408 14.912 34.688 34.688 0 0 1-46.272 4.096c-12.992-9.6-15.424-19.904-15.424-33.728l51.648-349.44a28.288 28.288 0 0 0-24-32.448c-16.768-2.88-33.408 8.32-36.16 22.784l-57.6 294.336a35.072 35.072 0 0 1-43.392 30.08c-20.16-4.48-29.824-22.4-28.672-39.552l-1.28-374.592c0-13.696-13.184-25.728-30.656-25.728-17.536 0-30.592 12.16-30.592 25.6L529.28 469.76c-1.344 20.8-13.12 39.424-38.08 39.424-19.264 0-31.552-12.416-37.44-27.712l-55.04-293.696a31.36 31.36 0 0 0-34.624-26.24c-16.448 1.92-28.16 16.256-26.368 29.888l48.256 366.592c7.552 56.512 7.808 82.56-12.48 104.576-31.68 34.56-83.52 32.576-121.088-1.92L155.968 571.52c-19.584-18.048-49.088-17.088-70.656 2.944-20.864 19.136-22.4 43.712-5.12 59.84h0.128z" p-id="10493"></path></svg>