<?xml version="1.0" standalone="no"?><!DOCTYPE svg PUBLIC "-//W3C//DTD SVG 1.1//EN" "http://www.w3.org/Graphics/SVG/1.1/DTD/svg11.dtd"><svg t="1594886894308" class="icon" viewBox="0 0 1024 1024" version="1.1" xmlns="http://www.w3.org/2000/svg" p-id="1954" xmlns:xlink="http://www.w3.org/1999/xlink" width="16" height="16"><defs><style type="text/css"></style></defs><path d="M819.8 754.1L703.1 637.4c12.4-17.2 22.9-35.8 31.2-55.5 14.5-34.5 21.8-71.1 21.8-108.8s-7.4-74.3-21.8-108.8c-14-33.3-34.1-63.2-59.6-88.9-25.5-25.6-55.2-45.8-88.5-60-34.5-14.5-70.9-21.9-108.4-21.9-37.6 0-74.1 7.4-108.4 22.1-33.1 14.1-62.9 34.2-88.5 60-25.6 25.8-45.7 55.7-59.6 88.9-14.5 34.5-21.8 71.1-21.8 108.8s7.4 74.3 21.8 108.8c14 33.3 34.1 63.2 59.6 88.9 25.5 25.6 55.2 45.8 88.5 60 34.3 14.6 70.7 22 108.4 22 37.5 0 74-7.4 108.4-22 19.9-8.5 38.8-19.2 56.1-31.9l116.5 116.5c8.4 8.4 19.5 12.6 30.5 12.6 11.1 0 22.1-4.2 30.6-12.6l0.1-0.1c16.7-17.2 16.6-44.7-0.2-61.4z m-138-280.9c0 113.2-91.5 205.2-204 205.2s-204-92.1-204-205.2S365.3 268 477.8 268s204 92.1 204 205.2z" p-id="1955" fill="#ffffff"></path></svg>