<?xml version="1.0" standalone="no"?><!DOCTYPE svg PUBLIC "-//W3C//DTD SVG 1.1//EN" "http://www.w3.org/Graphics/SVG/1.1/DTD/svg11.dtd"><svg t="1594832600828" class="icon" viewBox="0 0 1024 1024" version="1.1" xmlns="http://www.w3.org/2000/svg" p-id="3155" width="32" height="32" xmlns:xlink="http://www.w3.org/1999/xlink"><defs><style type="text/css"></style></defs><path d="M113.777778 227.555556c17.066667 0 34.133333 5.688889 45.511111 17.066666L472.177778 614.4c11.377778 5.688889 17.066667 11.377778 34.133333 11.377778 5.688889 0 22.755556-5.688889 28.444445-11.377778l329.955555-364.088889c22.755556-22.755556 56.888889-22.755556 79.644445-5.688889 22.755556 22.755556 22.755556 56.888889 5.688888 79.644445l-329.955555 364.088889c-28.444444 34.133333-73.955556 51.2-119.46666699 51.2s-85.333333-22.755556-119.46666601-56.888889l-312.888889-364.088889c-22.755556-22.755556-17.066667-56.888889 5.688889-79.644445 11.377778-5.688889 28.444444-11.377778 39.822222-11.377777z" p-id="3156" fill="#8a8a8a"></path></svg>